<svg width="656" height="656" viewBox="0 0 656 656" fill="none" xmlns="http://www.w3.org/2000/svg">
<path d="M412 177V194.929C480.62 203.893 534.2 260.37 534.2 328.5C534.2 396.63 480.62 453.107 412 462.071V480C490.96 471.036 553 406.491 553 328.5C553 250.509 490.96 185.964 412 177Z" fill="#FF928A"/>
<path d="M412 268V286.963C428.92 294.187 440.2 309.537 440.2 328.5C440.2 347.463 428.92 362.813 412 370.037V389C439.26 380.873 459 357.396 459 328.5C459 299.604 439.26 276.127 412 268Z" fill="#F44336"/>
<path d="M412 223V240.881C455.24 248.928 487.2 285.585 487.2 328.5C487.2 371.415 455.24 408.072 412 416.119V434C465.58 425.059 506 381.25 506 328.5C506 275.75 465.58 231.047 412 223Z" fill="#FF6A5F"/>
<path d="M363.368 161.553L363.662 161.299L365.064 160.094L378.573 148.479V166.305V489.055V506.88L365.064 495.265L363.383 493.82L363.368 493.807V161.553Z" fill="#F44336"/>
<path d="M363.368 327.68V493.807L260.688 405.527H183.132H183.074V327.68H363.368Z" fill="#C2C2C2"/>
<path d="M183.074 249.818H183.353H260.706L363.368 161.553V332.172V332.233H183.074V331.982V249.818Z" fill="#CCCCCC"/>
<path d="M169.836 249.818H183.074V405.526H169.836C164.128 405.526 158.943 403.197 155.19 399.443C151.437 395.69 149.108 390.506 149.108 384.797V270.547C149.108 264.838 151.437 259.653 155.19 255.901C158.944 252.147 164.128 249.818 169.836 249.818Z" fill="#F44336"/>
</svg>
